<svg xmlns="http://www.w3.org/2000/svg"  viewBox="0 0 100 100" width="100px" height="100px"><path d="M 30.810547 18 C 23.768547 18 18 23.768547 18 30.810547 L 18 69.189453 C 18 76.230453 23.768547 82 30.810547 82 L 69.189453 82 C 76.230453 82 82 76.231453 82 69.189453 L 82 30.810547 C 82 23.768547 76.231453 18 69.189453 18 L 30.810547 18 z M 30.810547 20 L 69.189453 20 C 75.139453 20 80 24.859547 80 30.810547 L 80 69.189453 C 80 75.139453 75.140453 80 69.189453 80 L 30.810547 80 C 24.859547 80 20 75.140453 20 69.189453 L 20 30.810547 C 20 24.859547 24.859547 20 30.810547 20 z M 31.5 23 C 26.812 23 23 26.812 23 31.5 L 23 49.574219 C 22.996 49.850219 23.216188 50.076078 23.492188 50.080078 C 23.768187 50.084078 23.996 49.863891 24 49.587891 L 24 49.574219 L 24 31.5 C 24 27.352 27.352 24 31.5 24 L 40.056641 24 C 40.332641 24.004 40.560453 23.783812 40.564453 23.507812 C 40.568453 23.231813 40.346313 23.004 40.070312 23 L 40.056641 23 L 31.5 23 z M 43.056641 23 C 42.780641 22.996 42.554781 23.216188 42.550781 23.492188 C 42.546781 23.768187 42.766969 23.996 43.042969 24 L 43.056641 24 L 50.019531 24 C 50.295531 24.004 50.523344 23.783812 50.527344 23.507812 C 50.531344 23.231813 50.309203 23.004 50.033203 23 L 50.019531 23 L 43.056641 23 z M 53.019531 23 C 52.743531 22.996 52.517672 23.216188 52.513672 23.492188 C 52.509672 23.768187 52.729859 23.996 53.005859 24 L 53.019531 24 L 68.5 24 C 72.627 24 76 27.373 76 31.5 L 76 68.5 C 76 72.648 72.648 76 68.5 76 L 31.5 76 C 27.352 76 24 72.648 24 68.5 L 24 64.574219 C 24.004 64.298219 23.783812 64.070406 23.507812 64.066406 C 23.231813 64.062406 23.004 64.284547 23 64.560547 L 23 64.574219 L 23 68.5 C 23 73.188 26.812 77 31.5 77 L 68.5 77 C 73.188 77 77 73.188 77 68.5 L 77 31.5 C 77 26.827 73.173 23 68.5 23 L 53.019531 23 z M 40.005859 32 C 39.397816 31.999322 38.779287 32.040684 38.154297 32.126953 C 30.738794 33.150032 25.750535 40.479413 27.273438 47.800781 C 27.963113 51.118735 29.962222 53.669253 33.146484 56.853516 A 0.50005 0.50005 0 0 0 33.15625 56.863281 L 45.15625 68.183594 A 0.50005 0.50005 0 0 0 46 67.820312 L 46 57 C 46 54.785288 47.785288 53 50 53 C 52.214712 53 54 54.785288 54 57 L 54 67.820312 A 0.50005 0.50005 0 0 0 54.84375 68.183594 L 66.84375 56.863281 A 0.50005 0.50005 0 0 0 66.853516 56.853516 C 70.037778 53.669253 72.036888 51.118735 72.726562 47.800781 C 74.248397 40.480461 69.261258 33.150039 61.845703 32.126953 C 57.05789 31.466394 52.738374 33.473032 50 36.808594 C 47.976052 34.34399 45.109912 32.586556 41.796875 32.125 C 41.21146 32.043443 40.613902 32.000678 40.005859 32 z M 40.005859 33 C 40.568918 32.999752 41.123009 33.038187 41.664062 33.113281 C 44.910381 33.563969 47.722859 35.318939 49.599609 37.820312 A 0.50005 0.50005 0 0 0 50.400391 37.820312 C 52.901699 34.485234 57.069865 32.479096 61.708984 33.119141 C 68.54343 34.062054 73.154178 40.834012 71.748047 47.597656 C 71.115722 50.639703 69.290222 53.002747 66.146484 56.146484 L 55 66.660156 L 55 57 C 55 54.244712 52.755288 52 50 52 C 47.244712 52 45 54.244712 45 57 L 45 66.660156 L 33.853516 56.146484 L 33.851562 56.142578 L 33.84375 56.136719 C 30.706981 52.998652 28.883515 50.636033 28.251953 47.597656 C 26.844856 40.833024 31.456519 34.062061 38.291016 33.119141 C 38.870775 33.039136 39.442801 33.000248 40.005859 33 z M 62.972656 35.865234 A 0.50005 0.50005 0 0 0 62.685547 36.78125 C 65.294904 38.581135 67 41.586667 67 45 C 67 48.413333 65.294904 51.418865 62.685547 53.21875 A 0.50005 0.50005 0 1 0 63.253906 54.041016 C 66.124549 52.060901 68 48.746667 68 45 C 68 41.253333 66.124549 37.939099 63.253906 35.958984 A 0.50005 0.50005 0 0 0 62.972656 35.865234 z M 37.011719 35.867188 A 0.50005 0.50005 0 0 0 36.746094 35.958984 C 33.875451 37.939049 32 41.253333 32 45 C 32 48.746667 33.875451 52.060901 36.746094 54.041016 A 0.50005 0.50005 0 1 0 37.314453 53.21875 C 34.705096 51.418865 33 48.413333 33 45 C 33 41.586667 34.705096 38.581135 37.314453 36.78125 A 0.50005 0.50005 0 0 0 37.011719 35.867188 z M 43.318359 38.255859 A 0.50005 0.50005 0 0 0 43.091797 38.314453 C 40.659228 39.557486 39 42.090049 39 45 C 39 47.909951 40.659228 50.442472 43.091797 51.685547 A 0.50007721 0.50007721 0 1 0 43.546875 50.794922 C 41.439444 49.717997 40 47.530049 40 45 C 40 42.469951 41.439444 40.282003 43.546875 39.205078 A 0.50005 0.50005 0 0 0 43.318359 38.255859 z M 56.666016 38.255859 A 0.50005 0.50005 0 0 0 56.453125 39.205078 C 58.560556 40.281957 60 42.469951 60 45 C 60 47.530049 58.560556 49.717997 56.453125 50.794922 A 0.50007721 0.50007721 0 1 0 56.908203 51.685547 C 59.340772 50.442472 61 47.909951 61 45 C 61 42.090049 59.340772 39.557528 56.908203 38.314453 A 0.50005 0.50005 0 0 0 56.666016 38.255859 z M 50 41 C 48.708334 41 47.676923 41.502378 47.001953 42.261719 C 46.326984 43.02106 46 44.013889 46 45 C 46 45.986111 46.326984 46.97894 47.001953 47.738281 C 47.676923 48.497622 48.708334 49 50 49 C 51.291666 49 52.323077 48.497622 52.998047 47.738281 C 53.673016 46.97894 54 45.986111 54 45 C 54 44.013889 53.673016 43.02106 52.998047 42.261719 C 52.323077 41.502378 51.291666 41 50 41 z M 50 42 C 51.041666 42 51.760256 42.372622 52.251953 42.925781 C 52.74365 43.47894 53 44.236111 53 45 C 53 45.763889 52.74365 46.52106 52.251953 47.074219 C 51.760256 47.627378 51.041666 48 50 48 C 48.958334 48 48.239744 47.627378 47.748047 47.074219 C 47.25635 46.52106 47 45.763889 47 45 C 47 44.236111 47.25635 43.47894 47.748047 42.925781 C 48.239744 42.372622 48.958334 42 50 42 z M 23.492188 58.066406 C 23.216188 58.070406 22.996 58.298219 23 58.574219 L 23 61.574219 C 22.996 61.850219 23.216188 62.076078 23.492188 62.080078 C 23.768187 62.084078 23.996 61.863891 24 61.587891 L 24 61.574219 L 24 58.574219 C 24.004 58.298219 23.783812 58.071406 23.507812 58.066406 L 23.492188 58.066406 z"/></svg>